<svg id="eBxLYzwsRhP1" xmlns="http://www.w3.org/2000/svg" xmlns:xlink="http://www.w3.org/1999/xlink" viewBox="0 0 500 500" shape-rendering="geometricPrecision" text-rendering="geometricPrecision" project-id="9a3d65100a5e4cd38c07f9786958e5d3" export-id="e6e3033aa1bd4040ac1cad4a948e228e" cached="false" style="background-color:transparent"><rect width="100" height="100" rx="0" ry="0" transform="translate(200 200)" stroke-width="0"/><rect width="100" height="100" rx="0" ry="0" transform="translate(100 100)" stroke-width="0"/><rect width="100" height="100" rx="0" ry="0" transform="translate(300 300)" fill="#fff" stroke-width="0"/><rect width="100" height="100" rx="0" ry="0" transform="translate(300 300)" stroke-width="0"/><rect width="100" height="100" rx="0" ry="0" transform="translate(100 300)" stroke-width="0"/><rect width="100" height="100" rx="0" ry="0" transform="translate(300 100)" stroke-width="0"/><path d="M100,101.475h-100l50-100l50,100Z" transform="matrix(0 1-1 0 201.475 200)"/><path d="M100,101.475h-100l50-100l50,100Z" transform="matrix(0-1 1 0 298.525 300)"/><path d="M100,101.475h-100l50-100l50,100Z" transform="translate(200 298.525)"/><path d="M100,101.475h-100l50-100l50,100Z" transform="matrix(-1 0 0-1 300 201.475)"/></svg>
